<svg id="Layer_1" data-name="Layer 1" xmlns="http://www.w3.org/2000/svg" xmlns:xlink="http://www.w3.org/1999/xlink" viewBox="0 0 1600 445"><defs><style>.cls-1{fill:none;}.cls-2{opacity:0.54;}.cls-3{clip-path:url(#clip-path);}.cls-4{fill:#0a3de2;}.cls-5{fill:#002bdd;}.cls-6{clip-path:url(#clip-path-2);}.cls-7{opacity:0.1;}.cls-8{clip-path:url(#clip-path-3);}.cls-9{clip-path:url(#clip-path-4);}</style><clipPath id="clip-path"><rect class="cls-1" x="2.9" y="-507.72" width="1604.21" height="448.43"/></clipPath><clipPath id="clip-path-2"><rect class="cls-1" x="-2.1" y="-1.72" width="1604.21" height="448.43"/></clipPath><clipPath id="clip-path-3"><rect class="cls-1" x="2.33" y="-1033.24" width="1604.21" height="541.44"/></clipPath><clipPath id="clip-path-4"><rect class="cls-1" x="-1709.49" y="-1033.24" width="5027.84" height="1405.46"/></clipPath></defs><title>footer-background</title><g class="cls-2"><g class="cls-3"><path class="cls-4" d="M1227.22-19.2a45.88,45.88,0,0,0-43.47-4.23,45.78,45.78,0,0,0-28,42.22c0,6.3,1.28-17.08,3.61-11.59A46,46,0,0,0,1176,27.36a45.71,45.71,0,0,0,12,5.77,45.84,45.84,0,0,0,13.62,2.06,45.73,45.73,0,0,0,17.84-3.61A46,46,0,0,0,1239.58,15a45.69,45.69,0,0,0,5.77-12c1.34-4.31,2.06,20.53,2.06,15.81a45.77,45.77,0,0,0-20.2-38Zm-3.74,17.81a23.89,23.89,0,0,1-8.62,10.46,23.61,23.61,0,0,1-6.21,3,23.74,23.74,0,0,1-7.07,1.07,23.65,23.65,0,0,1-9.24-1.86,23.9,23.9,0,0,1-10.46-8.62c-1.28-1.9-2.29,25.45-3,23.22a23.76,23.76,0,1,1,46.44-7.07C1225.34,22.1,1224.68-4.23,1223.48-1.39Z"/><path class="cls-4" d="M1314.92-18.34a23.93,23.93,0,0,1-2.8-11.22,23.59,23.59,0,0,1,.94-6.59,23.7,23.7,0,0,1,2.88-6.28l-18.53-12a45.8,45.8,0,0,0-5.54,12.11,45.65,45.65,0,0,0-1.81,12.75A46,46,0,0,0,1295.44-8,45.68,45.68,0,0,0,1311,9l12-18.53h0A23.58,23.58,0,0,1,1314.92-18.34Z"/><path class="cls-4" d="M1640.72-32.66a45.68,45.68,0,0,0-25-8.28l-1.32,0a45.67,45.67,0,0,0-17.49,3.47,46,46,0,0,0-20,16,45.68,45.68,0,0,0-8.28,25c0,.45,0,.89,0,1.32a45.67,45.67,0,0,0,3.47,17.49c3.36,8.11,8.95-14.4,16-9.41a45.68,45.68,0,0,0,25,8.28l.62-22.06h0c-3.25-.09-6.28,28.61-9,27.37a23.88,23.88,0,0,1-10.15-8.64,23.57,23.57,0,0,1-3.9-13q0-.35,0-.66v0a23.63,23.63,0,0,1,2.06-9A23.89,23.89,0,0,1,1601.36-15a23.57,23.57,0,0,1,13-3.9h.69a23.65,23.65,0,0,1,9,2.06,23.88,23.88,0,0,1,10.14,8.64,23.56,23.56,0,0,1,3.9,13q0,.34,0,.69l22.06.61c0-.43,0-.87,0-1.3a45.67,45.67,0,0,0-3.47-17.49A46,46,0,0,0,1640.72-32.66Z"/><polygon class="cls-4" points="1568.6 3.58 1568.6 3.57 1568.6 3.56 1568.6 3.58"/><polygon class="cls-4" points="1500.2 -44.33 1463.71 -43.48 1462.86 -79.98 1440.79 -79.46 1441.64 -42.97 1405.15 -42.12 1405.66 -20.06 1442.16 -20.91 1443.01 15.59 1465.07 15.07 1464.22 -21.42 1500.71 -22.27 1500.2 -44.33"/><polygon class="cls-4" points="1096.52 -18.95 1077.59 -30.31 1058.81 0.99 1027.51 -17.79 1016.15 1.13 1047.45 19.91 1028.66 21.78 1047.59 33.14 1066.37 1.84 1097.67 20.63 1109.03 1.7 1077.73 12.35 1096.52 -18.95"/><polygon class="cls-4" points="867.47 -52.73 833.74 -38.78 819.79 -72.51 799.4 -64.08 813.35 -30.34 779.62 -16.39 788.05 4 821.78 -9.95 835.73 23.78 856.13 15.35 842.18 -18.38 875.91 -32.34 867.47 -52.73"/><path class="cls-4" d="M264.55-19.2a45.88,45.88,0,0,0-43.47-4.23,45.78,45.78,0,0,0-28,42.22c0,6.3,1.28-17.08,3.61-11.59a46,46,0,0,0,16.59,20.15,45.72,45.72,0,0,0,12,5.77,45.84,45.84,0,0,0,13.62,2.06,45.73,45.73,0,0,0,17.84-3.61A46,46,0,0,0,276.92,15a45.69,45.69,0,0,0,5.77-12c1.34-4.31,2.06,20.53,2.06,15.81a45.77,45.77,0,0,0-20.2-38ZM260.82-1.39A23.89,23.89,0,0,1,252.2,9.07a23.61,23.61,0,0,1-6.21,3,23.74,23.74,0,0,1-7.07,1.07,23.64,23.64,0,0,1-9.24-1.86,23.89,23.89,0,0,1-10.46-8.62c-1.28-1.9-2.29,25.45-3,23.22a23.76,23.76,0,1,1,46.44-7.07C262.68,22.1,262-4.23,260.82-1.39Z"/><path class="cls-4" d="M352.26-18.34a23.93,23.93,0,0,1-2.8-11.22,23.59,23.59,0,0,1,.94-6.59,23.72,23.72,0,0,1,2.88-6.28l-18.53-12A45.78,45.78,0,0,0,329.2-42.3a45.66,45.66,0,0,0-1.81,12.75A46,46,0,0,0,332.77-8,45.68,45.68,0,0,0,348.33,9l12-18.53h0A23.59,23.59,0,0,1,352.26-18.34Z"/><path class="cls-4" d="M946.24,22.16a23.94,23.94,0,0,1-2.8-11.22,23.59,23.59,0,0,1,3.81-12.87l-18.53-12a45.65,45.65,0,0,0-7.35,24.85c0,7.51,1.84-14.5,5.38-7.84A45.69,45.69,0,0,0,942.31,20l12-18.53h0C950.76-.81,948.08,25.61,946.24,22.16Z"/><path class="cls-4" d="M678.06-32.66a45.67,45.67,0,0,0-25-8.28l-1.32,0a45.67,45.67,0,0,0-17.49,3.47,46,46,0,0,0-20,16,45.67,45.67,0,0,0-8.28,25c0,.45,0,.89,0,1.32a45.67,45.67,0,0,0,3.47,17.49c3.36,8.11,8.95-14.4,16-9.41a45.68,45.68,0,0,0,25,8.28l.62-22.06h0c-3.25-.09-6.28,28.61-9,27.37a23.89,23.89,0,0,1-10.15-8.64,23.57,23.57,0,0,1-3.9-13c0-.24,0-.46,0-.66v0a23.64,23.64,0,0,1,2.06-9A23.89,23.89,0,0,1,638.69-15a23.57,23.57,0,0,1,13-3.9h.69a23.65,23.65,0,0,1,9,2.06A23.88,23.88,0,0,1,671.6-8.18a23.56,23.56,0,0,1,3.9,13q0,.34,0,.69l22.06.61q0-.65,0-1.3a45.67,45.67,0,0,0-3.47-17.49A46,46,0,0,0,678.06-32.66Z"/><polygon class="cls-4" points="605.94 3.58 605.94 3.57 605.94 3.56 605.94 3.58"/><polygon class="cls-4" points="537.53 -44.33 501.04 -43.48 500.19 -79.98 478.13 -79.46 478.98 -42.97 442.48 -42.12 443 -20.06 479.49 -20.91 480.34 15.59 502.4 15.07 501.56 -21.42 538.05 -22.27 537.53 -44.33"/><polygon class="cls-4" points="133.85 -18.95 114.92 -30.31 96.14 0.99 64.84 -17.79 53.48 1.13 84.78 19.91 66 21.78 84.92 33.14 103.71 1.84 135.01 20.63 146.36 1.7 115.06 12.35 133.85 -18.95"/></g></g><rect class="cls-5" x="-2.1" y="-1.72" width="1604.21" height="448.43"/><g class="cls-2"><g class="cls-6"><path class="cls-4" d="M1327.75,222.33a45.77,45.77,0,1,0,16.59,20.15A45.64,45.64,0,0,0,1327.75,222.33ZM1324,269.57A23.89,23.89,0,0,1,1315.4,280a23.81,23.81,0,0,1-22.52,2.19,23.89,23.89,0,0,1-10.46-8.62,23.81,23.81,0,0,1-2.19-22.52,23.89,23.89,0,0,1,8.62-10.46,23.81,23.81,0,0,1,22.52-2.19,23.89,23.89,0,0,1,10.46,8.62,23.81,23.81,0,0,1,2.19,22.52Z"/><path class="cls-4" d="M986.16-32.51a45.68,45.68,0,0,0-5.77,12,45.82,45.82,0,0,0-2.06,13.62A45.72,45.72,0,0,0,981.93,11a45.94,45.94,0,0,0,16.59,20.15,45.65,45.65,0,0,0,12,5.77,45.79,45.79,0,0,0,13.62,2.06A45.71,45.71,0,0,0,1042,35.34a46,46,0,0,0,20.15-16.59,45.71,45.71,0,0,0,5.77-12A45.81,45.81,0,0,0,1070-6.88a45.73,45.73,0,0,0-3.61-17.84,46,46,0,0,0-16.59-20.15,45.67,45.67,0,0,0-12-5.77,45.81,45.81,0,0,0-13.62-2.06,45.71,45.71,0,0,0-17.84,3.61A45.94,45.94,0,0,0,986.16-32.51Zm16.1,16.39a23.89,23.89,0,0,1,8.62-10.46,23.63,23.63,0,0,1,6.21-3,23.78,23.78,0,0,1,7.07-1.07,23.64,23.64,0,0,1,9.24,1.86,23.88,23.88,0,0,1,10.46,8.62,23.61,23.61,0,0,1,3,6.21,23.74,23.74,0,0,1,1.07,7.07A23.63,23.63,0,0,1,1046,2.36a23.89,23.89,0,0,1-8.62,10.46,23.61,23.61,0,0,1-6.21,3,23.76,23.76,0,0,1-7.07,1.07,23.63,23.63,0,0,1-9.24-1.86,23.88,23.88,0,0,1-10.46-8.62,23.61,23.61,0,0,1-3-6.21,23.73,23.73,0,0,1-1.07-7.07A23.63,23.63,0,0,1,1002.26-16.12Z"/><path class="cls-4" d="M803.21,84a46,46,0,1,0-17.84,3.61A46,46,0,0,0,803.21,84ZM765.67,55.06a23.81,23.81,0,0,1-2.19-22.52,23.89,23.89,0,0,1,8.62-10.46,23.81,23.81,0,0,1,22.52-2.19,23.89,23.89,0,0,1,10.46,8.62A23.81,23.81,0,0,1,807.26,51a23.89,23.89,0,0,1-8.62,10.46,23.81,23.81,0,0,1-22.52,2.19A23.89,23.89,0,0,1,765.67,55.06Z"/><path class="cls-4" d="M1501.18,19.83h0a45.83,45.83,0,1,0,23.32,88.63l-5.61-21.34a23.75,23.75,0,1,1-12.09-45.94h0a23.72,23.72,0,0,1,29,16.93l21.34-5.62a45.79,45.79,0,0,0-56-32.66Z"/><path class="cls-4" d="M1418.42,381.35a45.82,45.82,0,0,0,51.26-19.13l-18.53-12a23.59,23.59,0,0,1-8.76,8.06,23.93,23.93,0,0,1-11.22,2.8,23.79,23.79,0,0,1-20.93-12.57,23.94,23.94,0,0,1-2.8-11.22,23.58,23.58,0,0,1,3.81-12.87l-18.53-12a45.85,45.85,0,0,0,25.7,68.9Z"/><path class="cls-4" d="M975.89,278.28a23.94,23.94,0,0,1-2.8-11.22,23.58,23.58,0,0,1,3.81-12.87l-18.53-12A45.81,45.81,0,0,0,972,305.58L984,287h0A23.58,23.58,0,0,1,975.89,278.28Z"/><path class="cls-4" d="M1390.14,74.64l20.53-8.1a45.79,45.79,0,0,0-59.45-25.81l8.1,20.53a23.72,23.72,0,0,1,30.82,13.38Z"/><path class="cls-4" d="M1028.15,385.27h0a23.59,23.59,0,0,1-7.51-8.65,23.93,23.93,0,0,1-2.58-10.81,23.79,23.79,0,0,1,13-21.15,23.92,23.92,0,0,1,10.81-2.58,23.6,23.6,0,0,1,13.64,4.33l12.7-18.05a45.83,45.83,0,1,0-52.73,75Z"/><path class="cls-4" d="M938.85,70.14l-18.53-12a45.83,45.83,0,1,0,77,49.77l-18.53-12h0A23.58,23.58,0,0,1,970,104a23.93,23.93,0,0,1-11.22,2.8,23.79,23.79,0,0,1-20.93-12.57A23.93,23.93,0,0,1,935,83a23.59,23.59,0,0,1,3.81-12.87Z"/><polygon class="cls-4" points="1134.47 198.13 1134.73 198.14 1134.72 198.14 1134.47 198.13"/><path class="cls-4" d="M1110.94,233.86a23.88,23.88,0,0,1,8.65-9.91,23.56,23.56,0,0,1,12.85-3.79q.6,0,1.18,0h0a23.63,23.63,0,0,1,8.89,2.19,23.88,23.88,0,0,1,9.91,8.65,23.56,23.56,0,0,1,3.79,12.85c0,.39,0,.79,0,1.2a23.75,23.75,0,0,1-23.7,22.59l-1.21,0-1.05,22q1.12.05,2.26.05a45.81,45.81,0,0,0,45.74-43.58h0q.05-1.13.05-2.27a45.81,45.81,0,0,0-43.56-45.74c-.78,0-1.54-.06-2.29-.06a45.82,45.82,0,0,0-45.74,43.58l22,1.08h0A23.64,23.64,0,0,1,1110.94,233.86Z"/><polygon class="cls-4" points="1134.73 198.14 1134.73 198.14 1134.73 198.14 1134.73 198.14"/><polygon class="cls-4" points="1583.01 262.2 1550.2 246.2 1566.2 213.39 1546.36 203.72 1530.37 236.53 1497.56 220.53 1487.88 240.37 1520.69 256.37 1504.69 289.18 1524.53 298.85 1540.53 266.04 1573.34 282.04 1583.01 262.2"/><polygon class="cls-4" points="1169.13 441.66 1188.79 431.63 1145.61 346.93 1125.94 356.96 1142.52 389.48 1110 406.06 1120.03 425.72 1152.55 409.14 1169.13 441.66"/><polygon class="cls-4" points="1167.21 61.08 1136.11 80.2 1116.99 49.11 1098.19 60.67 1117.31 91.76 1086.22 110.89 1097.78 129.69 1128.87 110.56 1147.99 141.66 1166.79 130.1 1147.67 99 1178.77 79.88 1167.21 61.08"/><polygon class="cls-4" points="1495.2 461.67 1458.71 462.52 1457.86 426.02 1435.79 426.54 1436.64 463.03 1400.15 463.88 1400.66 485.94 1437.16 485.09 1438.01 521.59 1460.07 521.07 1459.22 484.58 1495.71 483.73 1495.2 461.67"/><polygon class="cls-4" points="1630.54 132.51 1599.44 151.63 1611 170.43 1642.1 151.31 1661.22 182.4 1680.02 170.84 1660.9 139.75 1691.99 120.63 1680.43 101.83 1649.34 120.95 1630.22 89.85 1611.42 101.41 1630.54 132.51"/><polygon class="cls-4" points="862.47 453.27 828.74 467.22 814.79 433.49 794.4 441.93 808.35 475.66 774.62 489.61 783.05 510 816.78 496.05 830.73 529.78 851.13 521.35 837.18 487.62 870.91 473.67 862.47 453.27"/><polygon class="cls-4" points="1257.2 44.04 1274.17 58.15 1334.98 -14.93 1318.02 -29.05 1294.67 -0.99 1266.61 -24.34 1252.49 -7.37 1280.55 15.98 1257.2 44.04"/><polygon class="cls-4" points="838 138.78 831.91 174.77 795.92 168.68 792.23 190.44 885.98 206.3 889.66 184.54 853.67 178.45 859.76 142.46 838 138.78"/><polygon class="cls-4" points="856.97 280.59 834.17 333.06 854.41 341.86 854.41 341.86 868.42 309.63 900.65 323.64 909.44 303.4 856.97 280.59"/><polygon class="cls-4" points="1288.68 146.83 1284.64 111.92 1262.72 114.46 1269.3 171.29 1326.13 164.71 1323.59 142.79 1323.59 142.79 1288.68 146.83"/><polygon class="cls-4" points="878.7 0.54 899.9 -5.61 899.9 -5.61 890.11 -39.36 923.86 -49.15 917.71 -70.35 862.77 -54.41 878.7 0.54"/><polygon class="cls-4" points="1605.49 408.17 1605.49 408.17 1580.21 383.76 1604.61 358.48 1588.73 343.15 1549 384.31 1590.16 424.05 1605.49 408.17"/><polygon class="cls-4" points="1617.07 33.85 1617.07 33.85 1591.79 9.45 1616.19 -15.84 1600.32 -31.16 1560.58 10 1601.74 49.73 1617.07 33.85"/><rect class="cls-4" x="1266.78" y="349.62" width="22.07" height="46.17" transform="translate(122.21 1033.24) rotate(-46.01)"/><rect class="cls-4" x="916.37" y="393.02" width="22.07" height="46.17" transform="translate(-16.07 794.38) rotate(-46.01)"/><rect class="cls-4" x="1142.28" y="-39.96" width="22.07" height="46.18" transform="translate(244.33 693.17) rotate(-37.16)"/><rect class="cls-4" x="979.33" y="176.34" width="46.18" height="22.07" transform="translate(-4.46 349.1) rotate(-19.71)"/><rect class="cls-4" x="1405.32" y="180.42" width="46.17" height="22.07" transform="translate(653.17 1406.37) rotate(-65.09)"/><path class="cls-4" d="M365.09,222.33a45.77,45.77,0,1,0,16.59,20.15A45.65,45.65,0,0,0,365.09,222.33Zm-3.74,47.23A23.89,23.89,0,0,1,352.73,280a23.81,23.81,0,0,1-22.52,2.19,23.89,23.89,0,0,1-10.46-8.62,23.81,23.81,0,0,1-2.19-22.52,23.89,23.89,0,0,1,8.62-10.46,23.81,23.81,0,0,1,22.52-2.19A23.89,23.89,0,0,1,359.16,247a23.81,23.81,0,0,1,2.19,22.52Z"/><path class="cls-4" d="M34.5,9.51a45.72,45.72,0,0,0,12,5.77,45.84,45.84,0,0,0,13.62,2.06A45.73,45.73,0,0,0,78,13.73,46,46,0,0,0,98.13-2.86a45.68,45.68,0,0,0,5.77-12A45.82,45.82,0,0,0,106-28.49a45.72,45.72,0,0,0-3.61-17.84A46,46,0,0,0,85.76-66.48a45.67,45.67,0,0,0-12-5.77,45.82,45.82,0,0,0-13.62-2.06,45.73,45.73,0,0,0-17.84,3.61A46,46,0,0,0,22.14-54.12a45.7,45.7,0,0,0-5.77,12,45.82,45.82,0,0,0-2.06,13.62,45.72,45.72,0,0,0,3.61,17.84A46,46,0,0,0,34.5,9.51Zm3.74-47.24a23.89,23.89,0,0,1,8.62-10.46,23.6,23.6,0,0,1,6.21-3,23.71,23.71,0,0,1,7.07-1.07,23.63,23.63,0,0,1,9.24,1.86,23.89,23.89,0,0,1,10.46,8.62,23.61,23.61,0,0,1,3,6.21,23.74,23.74,0,0,1,1.07,7.07A23.63,23.63,0,0,1,82-19.24,23.89,23.89,0,0,1,73.41-8.78a23.61,23.61,0,0,1-6.21,3,23.73,23.73,0,0,1-7.07,1.07A23.65,23.65,0,0,1,50.89-6.6a23.9,23.9,0,0,1-10.46-8.62,23.61,23.61,0,0,1-3-6.21,23.75,23.75,0,0,1-1.07-7.07A23.64,23.64,0,0,1,38.24-37.73Z"/><path class="cls-4" d="M538.51,19.83a45.83,45.83,0,1,0,23.32,88.63l-5.61-21.34h0a23.78,23.78,0,1,1,16.93-29l21.34-5.62a45.79,45.79,0,0,0-56-32.66Z"/><path class="cls-4" d="M455.75,381.35A45.82,45.82,0,0,0,507,362.22l-18.53-12h0a23.59,23.59,0,0,1-8.76,8.06,23.93,23.93,0,0,1-11.22,2.8,23.79,23.79,0,0,1-20.93-12.57,23.93,23.93,0,0,1-2.8-11.22,23.59,23.59,0,0,1,3.81-12.87l-18.53-12a45.85,45.85,0,0,0,25.7,68.9Z"/><path class="cls-4" d="M427.48,74.64,448,66.54a45.79,45.79,0,0,0-59.45-25.81l8.1,20.53a23.72,23.72,0,0,1,30.82,13.38Z"/><polyline class="cls-4" points="396.66 61.26 396.66 61.26 396.66 61.26"/><polyline class="cls-4" points="707.55 406.78 707.55 406.78 707.55 406.78"/><path class="cls-4" d="M741.75,390.78a45.76,45.76,0,0,0-42.3-4.53l8.1,20.53a23.72,23.72,0,0,1,30.82,13.38l20.53-8.1A45.68,45.68,0,0,0,741.75,390.78Z"/><polyline class="cls-4" points="41.67 339.48 41.67 339.47 41.67 339.48"/><path class="cls-4" d="M65.49,385.27h0A23.59,23.59,0,0,1,58,376.62a23.93,23.93,0,0,1-2.58-10.81,23.59,23.59,0,0,1,4.33-13.64h0a23.58,23.58,0,0,1,8.65-7.51,23.92,23.92,0,0,1,10.81-2.58,23.6,23.6,0,0,1,13.64,4.33l12.7-18.05a45.83,45.83,0,1,0-52.73,75Z"/><path class="cls-4" d="M34.61,107.92l-18.53-12h0A23.58,23.58,0,0,1,7.32,104a23.93,23.93,0,0,1-11.22,2.8,23.61,23.61,0,0,1-6.59-.94A23.76,23.76,0,0,1-16.77,103a23.59,23.59,0,0,1-8.06-8.76A23.93,23.93,0,0,1-27.63,83a23.59,23.59,0,0,1,.94-6.59,23.72,23.72,0,0,1,2.88-6.28l-18.53-12a45.78,45.78,0,0,0-5.54,12.11A45.66,45.66,0,0,0-49.7,83a46,46,0,0,0,5.38,21.59,45.68,45.68,0,0,0,15.56,16.92,45.79,45.79,0,0,0,12.1,5.54A45.66,45.66,0,0,0-3.9,128.86a46,46,0,0,0,21.59-5.38A45.67,45.67,0,0,0,34.61,107.92Z"/><path class="cls-4" d="M148.27,233.86a23.88,23.88,0,0,1,8.65-9.91,23.56,23.56,0,0,1,12.85-3.79q.6,0,1.18,0h0a23.63,23.63,0,0,1,8.89,2.19,23.87,23.87,0,0,1,9.91,8.65,23.56,23.56,0,0,1,3.79,12.85q0,.58,0,1.2a23.75,23.75,0,0,1-23.7,22.59l-1.21,0-1.05,22q1.12.05,2.26.05a45.81,45.81,0,0,0,45.74-43.58h0q.05-1.13.05-2.26a45.81,45.81,0,0,0-43.56-45.74c-.78,0-1.54-.06-2.29-.06A45.82,45.82,0,0,0,124,241.67l22,1.08h0A23.64,23.64,0,0,1,148.27,233.86Z"/><polygon class="cls-4" points="172.05 198.14 172.07 198.14 172.07 198.14 172.05 198.14"/><polygon class="cls-4" points="620.35 262.2 587.54 246.2 603.54 213.39 583.7 203.72 567.7 236.53 534.89 220.53 525.22 240.37 558.03 256.37 542.03 289.18 561.87 298.85 577.87 266.04 610.68 282.04 620.35 262.2"/><polygon class="cls-4" points="206.46 441.66 226.12 431.63 182.94 346.93 163.28 356.96 179.86 389.48 147.34 406.06 157.36 425.72 189.88 409.14 206.46 441.66"/><polygon class="cls-4" points="135.11 129.69 166.21 110.56 185.33 141.66 204.13 130.1 185.01 99 216.1 79.88 204.54 61.08 173.45 80.2 154.33 49.11 135.53 60.67 154.65 91.76 123.55 110.89 135.11 129.69"/><polygon class="cls-4" points="532.53 461.67 496.04 462.52 495.19 426.02 473.13 426.54 473.98 463.03 437.48 463.88 438 485.94 474.49 485.09 475.34 521.59 497.4 521.07 496.56 484.58 533.05 483.73 532.53 461.67"/><polygon class="cls-4" points="667.55 89.85 648.75 101.41 667.87 132.51 636.78 151.63 648.34 170.43 679.43 151.31 698.55 182.4 717.35 170.84 698.23 139.75 729.33 120.63 717.77 101.83 686.67 120.95 667.55 89.85"/><polygon class="cls-4" points="724.86 280.13 707.31 248.12 687.96 258.74 733.67 342.1 753.02 331.49 735.47 299.48 767.48 281.93 756.87 262.58 724.86 280.13"/><polygon class="cls-4" points="294.54 44.04 311.5 58.15 372.31 -14.93 355.35 -29.05 332 -0.99 303.94 -24.34 289.82 -7.37 317.88 15.98 294.54 44.04"/><polygon class="cls-4" points="326.02 146.83 321.98 111.92 300.05 114.46 306.63 171.29 363.46 164.71 360.92 142.79 360.92 142.79 326.02 146.83"/><polygon class="cls-4" points="642.82 408.17 642.82 408.17 617.54 383.76 641.95 358.48 626.07 343.15 586.33 384.31 627.5 424.05 642.82 408.17"/><polygon class="cls-4" points="654.41 33.85 654.41 33.85 629.12 9.45 653.53 -15.84 637.65 -31.16 597.92 10 639.08 49.73 654.41 33.85"/><rect class="cls-4" x="304.12" y="349.62" width="22.07" height="46.17" transform="translate(-171.88 340.61) rotate(-46.01)"/><rect class="cls-4" x="179.62" y="-39.96" width="22.07" height="46.18" transform="translate(48.89 111.72) rotate(-37.16)"/><rect class="cls-4" x="16.66" y="176.34" width="46.18" height="22.07" transform="translate(-60.87 24.39) rotate(-19.71)"/><rect class="cls-4" x="442.65" y="180.42" width="46.17" height="22.07" transform="translate(95.94 533.24) rotate(-65.09)"/></g></g><g class="cls-7"><g class="cls-8"><g class="cls-2"><g class="cls-9"><path class="cls-4" d="M1519.49,179.64h0A73.94,73.94,0,0,1,1496,152.53a75,75,0,0,1-8.09-33.88,74.57,74.57,0,0,1,40.67-66.27,75,75,0,0,1,33.88-8.1,74,74,0,0,1,42.74,13.57L1645,1.28a143.62,143.62,0,1,0-165.27,234.94Z"/><polygon class="cls-4" points="1000.23 392.76 894.51 436.49 850.79 330.77 786.86 357.2 830.59 462.93 724.87 506.65 751.31 570.57 857.03 526.85 900.75 632.57 964.67 606.13 920.95 500.41 1026.67 456.68 1000.23 392.76"/><polygon class="cls-4" points="982.99 -148.44 911.52 16.01 974.97 43.59 974.96 43.59 1018.86 -57.42 1119.87 -13.53 1147.44 -76.97 982.99 -148.44"/><rect class="cls-4" x="1169.15" y="203.93" width="69.17" height="144.72" transform="translate(168.95 950.48) rotate(-46.01)"/><polyline class="cls-4" points="514.66 247.06 514.66 247.05 514.66 247.06"/><path class="cls-4" d="M621.85,196.92a143.43,143.43,0,0,0-132.58-14.21l25.39,64.34A74.34,74.34,0,0,1,611.24,289l64.34-25.39A143.17,143.17,0,0,0,621.85,196.92Z"/><path class="cls-4" d="M406.56,455.68a143.14,143.14,0,0,0-78.38-26c-1.48,0-2.86-.06-4.14-.06a143.59,143.59,0,0,0-143.5,139.56c0,1.42-.06,2.8-.06,4.13a143.14,143.14,0,0,0,10.87,54.82c10.52,25.41,28-45.13,50.29-29.51a143.16,143.16,0,0,0,78.43,26L322,555.47h0c-10.19-.29-19.68,89.67-28.34,85.79a74.86,74.86,0,0,1-31.8-27.09,73.86,73.86,0,0,1-12.23-40.84c0-.74,0-1.43,0-2.07v-.08a74.08,74.08,0,0,1,6.44-28.34,74.86,74.86,0,0,1,27.08-31.8A73.86,73.86,0,0,1,324,498.83c.76,0,1.43,0,2,0h.15a74.43,74.43,0,0,1,72.36,74.37q0,1.06,0,2.17l69.15,1.9q.05-2,.06-4.07a143.45,143.45,0,0,0-61.16-117.55Z"/><polygon class="cls-4" points="328.13 429.71 328.18 429.72 328.28 429.72 328.13 429.71"/><polygon class="cls-4" points="568.92 -149.88 513.92 -250.2 453.26 -216.94 596.53 44.34 657.18 11.08 602.18 -89.23 702.5 -144.24 669.24 -204.89 568.92 -149.88"/><polygon class="cls-4" points="311.81 251.4 311.81 251.4 232.57 174.91 309.06 95.67 259.29 47.63 134.76 176.64 263.77 301.17 311.81 251.4"/></g></g></g></g></svg>