<svg id="Layer_1" data-name="Layer 1" xmlns="http://www.w3.org/2000/svg" xmlns:xlink="http://www.w3.org/1999/xlink" viewBox="0 0 1600 540"><defs><style>.cls-1{fill:none;}.cls-2{opacity:0.1;}.cls-3{clip-path:url(#clip-path);}.cls-4{opacity:0.54;}.cls-5{clip-path:url(#clip-path-2);}.cls-6{fill:#0a3de2;}.cls-7{fill:#f0f0f2;}.cls-8{clip-path:url(#clip-path-3);}.cls-9{clip-path:url(#clip-path-4);}</style><clipPath id="clip-path"><rect class="cls-1" x="1826.16" y="144.42" width="1604.21" height="541.44"/></clipPath><clipPath id="clip-path-2"><rect class="cls-1" x="114.35" y="144.42" width="5027.84" height="1405.46"/></clipPath><clipPath id="clip-path-3"><rect class="cls-1" x="-2.1" y="-0.72" width="1604.21" height="541.44"/></clipPath><clipPath id="clip-path-4"><rect class="cls-1" x="-1713.92" y="-0.72" width="5027.84" height="1405.46"/></clipPath></defs><title>newsletter-background</title><g class="cls-2"><g class="cls-3"><g class="cls-4"><g class="cls-5"><path class="cls-6" d="M229.08,179.59a143.81,143.81,0,0,0,136.24,13.25,143.69,143.69,0,1,0-136.24-13.25Zm11.71-148a74.87,74.87,0,0,1,27-32.79A74.63,74.63,0,0,1,338.38-8.1a74.88,74.88,0,0,1,32.79,27A74.63,74.63,0,0,1,378,89.49a74.87,74.87,0,0,1-27,32.79,74.63,74.63,0,0,1-70.57,6.86,74.9,74.9,0,0,1-32.79-27,74.63,74.63,0,0,1-6.86-70.57Z"/><path class="cls-6" d="M1460.72,383.73l64.34-25.39a143.52,143.52,0,0,0-186.32-80.88l25.39,64.34a74.35,74.35,0,0,1,96.58,41.93Z"/><polyline class="cls-6" points="1364.13 341.8 1364.13 341.8 1364.13 341.8"/><path class="cls-6" d="M229.41,488l-58.08-37.56h0a73.91,73.91,0,0,1-27.45,25.27,75,75,0,0,1-35.17,8.77,74.56,74.56,0,0,1-65.59-39.4,75,75,0,0,1-8.77-35.17,73.92,73.92,0,0,1,11.95-40.32L-11.79,332a143.62,143.62,0,1,0,241.2,156Z"/><polygon class="cls-6" points="544.4 556.26 641.85 496.33 701.78 593.78 760.7 557.55 700.78 460.1 798.23 400.17 762 341.25 664.54 401.18 604.62 303.72 545.7 339.95 605.62 437.41 508.17 497.33 544.4 556.26"/><polygon class="cls-6" points="1044.06 287.82 1097.23 332.06 1287.83 103.01 1234.66 58.76 1161.48 146.71 1073.54 73.53 1029.29 126.7 1117.23 199.88 1044.06 287.82"/><polygon class="cls-6" points="1142.73 609.99 1130.06 500.59 1061.35 508.55 1081.97 686.66 1260.09 666.03 1252.13 597.32 1252.13 597.32 1142.73 609.99"/><rect class="cls-6" x="683.88" y="24.56" width="69.17" height="144.72" transform="translate(87.31 453.61) rotate(-37.16)"/><rect class="cls-6" x="1482.46" y="4.66" width="144.72" height="69.17" transform="matrix(0.94, -0.35, 0.35, 0.94, 82.31, 539.95)"/></g></g></g></g><rect class="cls-7" x="-2.1" y="-0.72" width="1604.21" height="541.44"/><g class="cls-2"><g class="cls-8"><g class="cls-4"><g class="cls-9"><path class="cls-6" d="M1383.44-97.23a143.16,143.16,0,0,0-18.09,37.63,143.6,143.6,0,0,0-6.46,42.7A143.3,143.3,0,0,0,1370.19,39a144,144,0,0,0,52,63.16,143.06,143.06,0,0,0,37.63,18.09,143.52,143.52,0,0,0,42.7,6.46,143.27,143.27,0,0,0,55.91-11.3,144,144,0,0,0,63.16-52,143.26,143.26,0,0,0,18.09-37.63,143.59,143.59,0,0,0,6.46-42.69,143.32,143.32,0,0,0-11.3-55.92,144,144,0,0,0-52-63.16,143.13,143.13,0,0,0-37.63-18.09,143.59,143.59,0,0,0-42.7-6.46,143.28,143.28,0,0,0-55.92,11.3A144,144,0,0,0,1383.44-97.23Zm50.46,51.36a74.87,74.87,0,0,1,27-32.79A74.07,74.07,0,0,1,1480.36-88a74.54,74.54,0,0,1,22.15-3.34,74.11,74.11,0,0,1,29,5.84,74.86,74.86,0,0,1,32.79,27,74,74,0,0,1,9.35,19.45A74.41,74.41,0,0,1,1577-16.91a74.07,74.07,0,0,1-5.84,29,74.86,74.86,0,0,1-27,32.79,74,74,0,0,1-19.45,9.35,74.47,74.47,0,0,1-22.15,3.34,74.07,74.07,0,0,1-29-5.84,74.85,74.85,0,0,1-32.79-27,74,74,0,0,1-9.35-19.45,74.38,74.38,0,0,1-3.34-22.15A74.06,74.06,0,0,1,1433.9-45.88Z"/><path class="cls-6" d="M810.07,268a144.12,144.12,0,1,0-55.92,11.3A144,144,0,0,0,810.07,268ZM692.4,177.24a74.63,74.63,0,0,1-6.86-70.57,74.88,74.88,0,0,1,27-32.79A74.63,74.63,0,0,1,783.12,67a74.88,74.88,0,0,1,32.79,27,74.63,74.63,0,0,1,6.86,70.57,74.87,74.87,0,0,1-27,32.79,74.62,74.62,0,0,1-70.57,6.86A74.86,74.86,0,0,1,692.4,177.24Z"/><path class="cls-6" d="M1235.17,224.48l-58.08-37.57a143.62,143.62,0,1,0,241.2,156l-58.08-37.56h0a73.92,73.92,0,0,1-27.45,25.26,75,75,0,0,1-35.17,8.77A74.57,74.57,0,0,1,1232,300a75,75,0,0,1-8.77-35.17,73.93,73.93,0,0,1,11.95-40.32Z"/><polygon class="cls-6" points="919.09 439.62 900 552.42 787.2 533.33 775.66 601.54 1069.47 651.25 1081.01 583.04 968.21 563.96 987.29 451.15 919.09 439.62"/><polygon class="cls-6" points="1046.67 6.34 1113.11 -12.93 1113.11 -12.93 1082.42 -118.7 1188.2 -149.38 1168.93 -215.82 996.72 -165.87 1046.67 6.34"/><rect class="cls-6" x="1362.04" y="557.34" width="144.72" height="69.17" transform="translate(-115.6 518.52) rotate(-19.71)"/><path class="cls-6" d="M-19.54,66.8a143.53,143.53,0,0,0-43.92,19.9,143.72,143.72,0,0,0-46.29,51.47,143.4,143.4,0,0,0-16.89,67.45,143.81,143.81,0,0,0,4.76,36.62A143.52,143.52,0,0,0,53.55,344.59L36,277.69h0a74.72,74.72,0,0,1-19,2.48,74.55,74.55,0,0,1-45.05-15.25A74,74,0,0,1-55,224.64a74.17,74.17,0,0,1,12.77-64.07A74,74,0,0,1-1.94,133.69a74.58,74.58,0,0,1,19-2.48,74.55,74.55,0,0,1,45.05,15.25A74,74,0,0,1,89,186.75l66.9-17.6A143.5,143.5,0,0,0-19.54,66.8Z"/><polygon class="cls-6" points="384.89 286.27 325.96 322.5 385.89 419.96 288.43 479.88 324.67 538.81 422.12 478.88 482.05 576.34 540.97 540.1 481.05 442.65 578.5 382.73 542.27 323.8 444.81 383.73 384.89 286.27"/><polygon class="cls-6" points="343.69 110.76 343.69 110.76 264.45 34.27 340.94 -44.97 291.17 -93.01 166.64 35.99 295.65 160.53 343.69 110.76"/></g></g></g></g></svg>